<?xml version="1.0" encoding="UTF-8"?>
<svg xmlns="http://www.w3.org/2000/svg" viewBox="0 0 160 56" width="320" height="112">
  <!-- Phase 26 painted side-view — Bronco-like boxy SUV; no logos/badges; facing right -->

  <defs>
    <linearGradient id="paint" x1="0" y1="0" x2="0" y2="1">
      <stop offset="0%" stop-color="#ffffff"/>
      <stop offset="28%" stop-color="#f2f2f2"/>
      <stop offset="55%" stop-color="#c8c8c8"/>
      <stop offset="82%" stop-color="#8a8a8a"/>
      <stop offset="100%" stop-color="#5a5a5a"/>
    </linearGradient>
    <linearGradient id="paintHi" x1="0" y1="0" x2="0" y2="1">
      <stop offset="0%" stop-color="#ffffff" stop-opacity="0.95"/>
      <stop offset="45%" stop-color="#ffffff" stop-opacity="0.35"/>
      <stop offset="100%" stop-color="#ffffff" stop-opacity="0"/>
    </linearGradient>
    <linearGradient id="glass" x1="0" y1="0" x2="0" y2="1">
      <stop offset="0%" stop-color="#1a222c"/>
      <stop offset="50%" stop-color="#0c1016"/>
      <stop offset="100%" stop-color="#06080c"/>
    </linearGradient>
    <linearGradient id="rocker" x1="0" y1="0" x2="0" y2="1">
      <stop offset="0%" stop-color="#000000" stop-opacity="0"/>
      <stop offset="100%" stop-color="#000000" stop-opacity="0.45"/>
    </linearGradient>
    <radialGradient id="rimShine" cx="35%" cy="30%" r="65%">
      <stop offset="0%" stop-color="#6a6a6a"/>
      <stop offset="55%" stop-color="#2a2a2a"/>
      <stop offset="100%" stop-color="#0a0a0a"/>
    </radialGradient>
  </defs>

  <g id="vehicle">
    <!-- body -->
    <path fill="url(#paint)" d="M10 40 L14 26 L26 12 L42 5 L50 4 L118 4 L132 10 L146 24 L150 36 L146 42 L20 42 Z"/>
    <path fill="url(#rocker)" d="M20 38 L146 38 L146 42 L20 42 Z"/>
    <!-- shoulder / hood highlight -->
    <path fill="url(#paintHi)" d="M16 26 L30 12 L48 5 L80 4 L120 4 L136 12 L148 26 L144 28 L128 14 L96 6 L56 6 L36 12 L22 22 Z"/>
    <path fill="none" stroke="#555" stroke-width="0.5" opacity="0.4" d="M70 8 L70 38"/><path fill="none" stroke="#555" stroke-width="0.5" opacity="0.4" d="M100 8 L100 38"/><path fill="#505050" opacity="0.35" d="M10 36 L16 26 L22 32 L14 40 Z"/>
    <!-- glass -->
    <path fill="url(#glass)" d="M44 7 L70 6 L100 6 L118 10 L120 24 L46 24 L42 12 Z"/>
    <!-- wheels -->
    <circle cx="40" cy="42" r="10.2" fill="#0a0a0c"/>
    <circle cx="40" cy="42" r="9.384" fill="none" stroke="#1c1c20" stroke-width="1.2"/>
    <circle cx="40" cy="42" r="7.343999999999999" fill="url(#rimShine)"/>
    <path d="M40.00 39.76 L40.00 35.68 L44.03 37.13 L41.43 40.27 Z" fill="#4a4a4e"/>
    <path d="M42.13 41.31 L46.01 40.05 L45.88 44.33 L42.09 42.83 Z" fill="#4a4a4e"/>
    <path d="M41.32 43.82 L43.72 47.12 L39.60 48.31 L39.86 44.24 Z" fill="#4a4a4e"/>
    <path d="M38.68 43.82 L36.28 47.12 L33.87 43.57 L37.83 42.56 Z" fill="#4a4a4e"/>
    <path d="M37.87 41.31 L33.99 40.05 L36.61 36.66 L38.80 40.11 Z" fill="#4a4a4e"/>
    <circle cx="40" cy="42" r="1.8359999999999999" fill="#1a1a1c"/>
    <circle cx="40" cy="42" r="0.816" fill="#3a3a3c"/>
    <circle cx="40" cy="42" r="7.343999999999999" fill="none" stroke="#555558" stroke-width="0.6"/>
    <circle cx="124" cy="42" r="10.2" fill="#0a0a0c"/>
    <circle cx="124" cy="42" r="9.384" fill="none" stroke="#1c1c20" stroke-width="1.2"/>
    <circle cx="124" cy="42" r="7.343999999999999" fill="url(#rimShine)"/>
    <path d="M124.00 39.76 L124.00 35.68 L128.03 37.13 L125.43 40.27 Z" fill="#4a4a4e"/>
    <path d="M126.13 41.31 L130.01 40.05 L129.88 44.33 L126.09 42.83 Z" fill="#4a4a4e"/>
    <path d="M125.32 43.82 L127.72 47.12 L123.60 48.31 L123.86 44.24 Z" fill="#4a4a4e"/>
    <path d="M122.68 43.82 L120.28 47.12 L117.87 43.57 L121.83 42.56 Z" fill="#4a4a4e"/>
    <path d="M121.87 41.31 L117.99 40.05 L120.61 36.66 L122.80 40.11 Z" fill="#4a4a4e"/>
    <circle cx="124" cy="42" r="1.8359999999999999" fill="#1a1a1c"/>
    <circle cx="124" cy="42" r="0.816" fill="#3a3a3c"/>
    <circle cx="124" cy="42" r="7.343999999999999" fill="none" stroke="#555558" stroke-width="0.6"/>
    <rect x="148" y="28" width="4.5" height="4" rx="0.8" fill="#d8d8d8" opacity="0.85"/>
    <rect x="8" y="30" width="3.5" height="3.5" rx="0.6" fill="#888890" opacity="0.7"/>
  </g>
</svg>
