<?xml version="1.0" encoding="UTF-8"?>
<svg xmlns="http://www.w3.org/2000/svg" viewBox="0 0 160 56" width="320" height="112">
  <!-- Phase 26 painted side-view — Generic hypercar class; no logos/badges; facing right -->

  <defs>
    <linearGradient id="paint" x1="0" y1="0" x2="0" y2="1">
      <stop offset="0%" stop-color="#ffffff"/>
      <stop offset="28%" stop-color="#f2f2f2"/>
      <stop offset="55%" stop-color="#c8c8c8"/>
      <stop offset="82%" stop-color="#8a8a8a"/>
      <stop offset="100%" stop-color="#5a5a5a"/>
    </linearGradient>
    <linearGradient id="paintHi" x1="0" y1="0" x2="0" y2="1">
      <stop offset="0%" stop-color="#ffffff" stop-opacity="0.95"/>
      <stop offset="45%" stop-color="#ffffff" stop-opacity="0.35"/>
      <stop offset="100%" stop-color="#ffffff" stop-opacity="0"/>
    </linearGradient>
    <linearGradient id="glass" x1="0" y1="0" x2="0" y2="1">
      <stop offset="0%" stop-color="#1a222c"/>
      <stop offset="50%" stop-color="#0c1016"/>
      <stop offset="100%" stop-color="#06080c"/>
    </linearGradient>
    <linearGradient id="rocker" x1="0" y1="0" x2="0" y2="1">
      <stop offset="0%" stop-color="#000000" stop-opacity="0"/>
      <stop offset="100%" stop-color="#000000" stop-opacity="0.45"/>
    </linearGradient>
    <radialGradient id="rimShine" cx="35%" cy="30%" r="65%">
      <stop offset="0%" stop-color="#6a6a6a"/>
      <stop offset="55%" stop-color="#2a2a2a"/>
      <stop offset="100%" stop-color="#0a0a0a"/>
    </radialGradient>
  </defs>

  <g id="vehicle">
    <!-- body -->
    <path fill="url(#paint)" d="M4 40 L16 30 L40 16 L70 8 L104 6 L132 12 L152 26 L150 36 L138 42 L18 42 Z"/>
    <path fill="url(#rocker)" d="M18 38 L138 38 L138 42 L18 42 Z"/>
    <!-- shoulder / hood highlight -->
    <path fill="url(#paintHi)" d="M12 30 L42 14 L74 8 L108 6 L136 14 L150 28 L146 30 L126 16 L94 10 L66 12 L38 20 Z"/>
    <!-- glass -->
    <path fill="url(#glass)" d="M64 10 L94 8 L118 16 L120 26 L96 28 L66 18 Z"/>
    <!-- wheels -->
    <circle cx="44" cy="42" r="8.8" fill="#0a0a0c"/>
    <circle cx="44" cy="42" r="8.096000000000002" fill="none" stroke="#1c1c20" stroke-width="1.2"/>
    <circle cx="44" cy="42" r="6.336" fill="url(#rimShine)"/>
    <path d="M44.00 40.06 L44.00 36.54 L47.48 37.80 L45.23 40.51 Z" fill="#4a4a4e"/>
    <path d="M45.84 41.40 L49.19 40.31 L49.07 44.01 L45.80 42.71 Z" fill="#4a4a4e"/>
    <path d="M45.14 43.57 L47.21 46.41 L43.66 47.45 L43.88 43.93 Z" fill="#4a4a4e"/>
    <path d="M42.86 43.57 L40.79 46.41 L38.72 43.36 L42.12 42.48 Z" fill="#4a4a4e"/>
    <path d="M42.16 41.40 L38.81 40.31 L41.08 37.39 L42.96 40.37 Z" fill="#4a4a4e"/>
    <circle cx="44" cy="42" r="1.584" fill="#1a1a1c"/>
    <circle cx="44" cy="42" r="0.7040000000000001" fill="#3a3a3c"/>
    <circle cx="44" cy="42" r="6.336" fill="none" stroke="#555558" stroke-width="0.6"/>
    <circle cx="124" cy="42" r="8.8" fill="#0a0a0c"/>
    <circle cx="124" cy="42" r="8.096000000000002" fill="none" stroke="#1c1c20" stroke-width="1.2"/>
    <circle cx="124" cy="42" r="6.336" fill="url(#rimShine)"/>
    <path d="M124.00 40.06 L124.00 36.54 L127.48 37.80 L125.23 40.51 Z" fill="#4a4a4e"/>
    <path d="M125.84 41.40 L129.19 40.31 L129.07 44.01 L125.80 42.71 Z" fill="#4a4a4e"/>
    <path d="M125.14 43.57 L127.21 46.41 L123.66 47.45 L123.88 43.93 Z" fill="#4a4a4e"/>
    <path d="M122.86 43.57 L120.79 46.41 L118.72 43.36 L122.12 42.48 Z" fill="#4a4a4e"/>
    <path d="M122.16 41.40 L118.81 40.31 L121.08 37.39 L122.96 40.37 Z" fill="#4a4a4e"/>
    <circle cx="124" cy="42" r="1.584" fill="#1a1a1c"/>
    <circle cx="124" cy="42" r="0.7040000000000001" fill="#3a3a3c"/>
    <circle cx="124" cy="42" r="6.336" fill="none" stroke="#555558" stroke-width="0.6"/>
    <rect x="148" y="28" width="4.5" height="4" rx="0.8" fill="#d8d8d8" opacity="0.85"/>
    <rect x="8" y="30" width="3.5" height="3.5" rx="0.6" fill="#888890" opacity="0.7"/>
  </g>
</svg>
