<?xml version="1.0" encoding="UTF-8"?>
<svg xmlns="http://www.w3.org/2000/svg" viewBox="0 0 160 56" width="320" height="112">
  <!-- Phase 26 painted side-view — Pickup truck cab+bed; no logos/badges; facing right -->

  <defs>
    <linearGradient id="paint" x1="0" y1="0" x2="0" y2="1">
      <stop offset="0%" stop-color="#ffffff"/>
      <stop offset="28%" stop-color="#f2f2f2"/>
      <stop offset="55%" stop-color="#c8c8c8"/>
      <stop offset="82%" stop-color="#8a8a8a"/>
      <stop offset="100%" stop-color="#5a5a5a"/>
    </linearGradient>
    <linearGradient id="paintHi" x1="0" y1="0" x2="0" y2="1">
      <stop offset="0%" stop-color="#ffffff" stop-opacity="0.95"/>
      <stop offset="45%" stop-color="#ffffff" stop-opacity="0.35"/>
      <stop offset="100%" stop-color="#ffffff" stop-opacity="0"/>
    </linearGradient>
    <linearGradient id="glass" x1="0" y1="0" x2="0" y2="1">
      <stop offset="0%" stop-color="#1a222c"/>
      <stop offset="50%" stop-color="#0c1016"/>
      <stop offset="100%" stop-color="#06080c"/>
    </linearGradient>
    <linearGradient id="rocker" x1="0" y1="0" x2="0" y2="1">
      <stop offset="0%" stop-color="#000000" stop-opacity="0"/>
      <stop offset="100%" stop-color="#000000" stop-opacity="0.45"/>
    </linearGradient>
    <radialGradient id="rimShine" cx="35%" cy="30%" r="65%">
      <stop offset="0%" stop-color="#6a6a6a"/>
      <stop offset="55%" stop-color="#2a2a2a"/>
      <stop offset="100%" stop-color="#0a0a0a"/>
    </radialGradient>
  </defs>

  <g id="vehicle">
    <!-- body -->
    <path fill="url(#paint)" d="M6 38 L10 28 L20 16 L36 9 L58 8 L66 16 L148 16 L152 28 L148 40 L140 42 L16 42 Z"/>
    <path fill="url(#rocker)" d="M16 38 L140 38 L140 42 L16 42 Z"/>
    <!-- shoulder / hood highlight -->
    <path fill="url(#paintHi)" d="M12 28 L24 16 L42 9 L58 8 L66 16 L148 16 L148 20 L66 20 L58 12 L40 12 L22 20 Z"/>
    <path fill="#707070" opacity="0.4" d="M66 16 L70 10 L148 10 L148 16 Z"/><path fill="none" stroke="#555" stroke-width="0.5" opacity="0.4" d="M66 16 L66 40"/>
    <!-- glass -->
    <path fill="url(#glass)" d="M28 12 L48 10 L62 14 L64 28 L30 28 L26 18 Z"/>
    <!-- wheels -->
    <circle cx="36" cy="42" r="9.8" fill="#0a0a0c"/>
    <circle cx="36" cy="42" r="9.016000000000002" fill="none" stroke="#1c1c20" stroke-width="1.2"/>
    <circle cx="36" cy="42" r="7.056" fill="url(#rimShine)"/>
    <path d="M36.00 39.84 L36.00 35.92 L39.87 37.32 L37.37 40.34 Z" fill="#4a4a4e"/>
    <path d="M38.05 41.33 L41.78 40.12 L41.65 44.24 L38.00 42.79 Z" fill="#4a4a4e"/>
    <path d="M37.27 43.74 L39.57 46.92 L35.62 48.06 L35.86 44.15 Z" fill="#4a4a4e"/>
    <path d="M34.73 43.74 L32.43 46.92 L30.11 43.51 L33.91 42.54 Z" fill="#4a4a4e"/>
    <path d="M33.95 41.33 L30.22 40.12 L32.74 36.87 L34.84 40.18 Z" fill="#4a4a4e"/>
    <circle cx="36" cy="42" r="1.764" fill="#1a1a1c"/>
    <circle cx="36" cy="42" r="0.784" fill="#3a3a3c"/>
    <circle cx="36" cy="42" r="7.056" fill="none" stroke="#555558" stroke-width="0.6"/>
    <circle cx="128" cy="42" r="9.8" fill="#0a0a0c"/>
    <circle cx="128" cy="42" r="9.016000000000002" fill="none" stroke="#1c1c20" stroke-width="1.2"/>
    <circle cx="128" cy="42" r="7.056" fill="url(#rimShine)"/>
    <path d="M128.00 39.84 L128.00 35.92 L131.87 37.32 L129.37 40.34 Z" fill="#4a4a4e"/>
    <path d="M130.05 41.33 L133.78 40.12 L133.65 44.24 L130.00 42.79 Z" fill="#4a4a4e"/>
    <path d="M129.27 43.74 L131.57 46.92 L127.62 48.06 L127.86 44.15 Z" fill="#4a4a4e"/>
    <path d="M126.73 43.74 L124.43 46.92 L122.11 43.51 L125.91 42.54 Z" fill="#4a4a4e"/>
    <path d="M125.95 41.33 L122.22 40.12 L124.74 36.87 L126.84 40.18 Z" fill="#4a4a4e"/>
    <circle cx="128" cy="42" r="1.764" fill="#1a1a1c"/>
    <circle cx="128" cy="42" r="0.784" fill="#3a3a3c"/>
    <circle cx="128" cy="42" r="7.056" fill="none" stroke="#555558" stroke-width="0.6"/>
    <rect x="148" y="28" width="4.5" height="4" rx="0.8" fill="#d8d8d8" opacity="0.85"/>
    <rect x="8" y="30" width="3.5" height="3.5" rx="0.6" fill="#888890" opacity="0.7"/>
  </g>
</svg>
