<?xml version="1.0" encoding="UTF-8"?>
<svg xmlns="http://www.w3.org/2000/svg" viewBox="0 0 160 56" width="320" height="112">
  <!-- Phase 26 painted side-view — Model 3-like compact EV sedan; no logos/badges; facing right -->

  <defs>
    <linearGradient id="paint" x1="0" y1="0" x2="0" y2="1">
      <stop offset="0%" stop-color="#ffffff"/>
      <stop offset="28%" stop-color="#f2f2f2"/>
      <stop offset="55%" stop-color="#c8c8c8"/>
      <stop offset="82%" stop-color="#8a8a8a"/>
      <stop offset="100%" stop-color="#5a5a5a"/>
    </linearGradient>
    <linearGradient id="paintHi" x1="0" y1="0" x2="0" y2="1">
      <stop offset="0%" stop-color="#ffffff" stop-opacity="0.95"/>
      <stop offset="45%" stop-color="#ffffff" stop-opacity="0.35"/>
      <stop offset="100%" stop-color="#ffffff" stop-opacity="0"/>
    </linearGradient>
    <linearGradient id="glass" x1="0" y1="0" x2="0" y2="1">
      <stop offset="0%" stop-color="#1a222c"/>
      <stop offset="50%" stop-color="#0c1016"/>
      <stop offset="100%" stop-color="#06080c"/>
    </linearGradient>
    <linearGradient id="rocker" x1="0" y1="0" x2="0" y2="1">
      <stop offset="0%" stop-color="#000000" stop-opacity="0"/>
      <stop offset="100%" stop-color="#000000" stop-opacity="0.45"/>
    </linearGradient>
    <radialGradient id="rimShine" cx="35%" cy="30%" r="65%">
      <stop offset="0%" stop-color="#6a6a6a"/>
      <stop offset="55%" stop-color="#2a2a2a"/>
      <stop offset="100%" stop-color="#0a0a0a"/>
    </radialGradient>
  </defs>

  <g id="vehicle">
    <!-- body -->
    <path fill="url(#paint)" d="M12 38 L18 26 L32 14 L52 9 L74 7 L100 8 L122 14 L140 26 L146 36 L140 40 L132 42 L22 42 Z"/>
    <path fill="url(#rocker)" d="M22 38 L132 38 L132 42 L22 42 Z"/>
    <!-- shoulder / hood highlight -->
    <path fill="url(#paintHi)" d="M20 26 L36 14 L56 9 L80 7 L106 9 L126 16 L140 28 L136 30 L118 18 L90 10 L68 10 L48 14 L32 20 Z"/>
    <!-- glass -->
    <path fill="url(#glass)" d="M50 10 L72 8 L100 10 L114 18 L112 26 L86 26 L52 18 Z"/>
    <!-- wheels -->
    <circle cx="38" cy="42" r="9.5" fill="#0a0a0c"/>
    <circle cx="38" cy="42" r="8.74" fill="none" stroke="#1c1c20" stroke-width="1.2"/>
    <circle cx="38" cy="42" r="6.84" fill="url(#rimShine)"/>
    <path d="M38.00 39.91 L38.00 36.11 L41.75 37.46 L39.33 40.39 Z" fill="#4a4a4e"/>
    <path d="M39.99 41.35 L43.60 40.18 L43.48 44.17 L39.94 42.77 Z" fill="#4a4a4e"/>
    <path d="M39.23 43.69 L41.46 46.77 L37.63 47.88 L37.87 44.09 Z" fill="#4a4a4e"/>
    <path d="M36.77 43.69 L34.54 46.77 L32.30 43.46 L35.98 42.52 Z" fill="#4a4a4e"/>
    <path d="M36.01 41.35 L32.40 40.18 L34.84 37.03 L36.88 40.24 Z" fill="#4a4a4e"/>
    <circle cx="38" cy="42" r="1.71" fill="#1a1a1c"/>
    <circle cx="38" cy="42" r="0.76" fill="#3a3a3c"/>
    <circle cx="38" cy="42" r="6.84" fill="none" stroke="#555558" stroke-width="0.6"/>
    <circle cx="122" cy="42" r="9.5" fill="#0a0a0c"/>
    <circle cx="122" cy="42" r="8.74" fill="none" stroke="#1c1c20" stroke-width="1.2"/>
    <circle cx="122" cy="42" r="6.84" fill="url(#rimShine)"/>
    <path d="M122.00 39.91 L122.00 36.11 L125.75 37.46 L123.33 40.39 Z" fill="#4a4a4e"/>
    <path d="M123.99 41.35 L127.60 40.18 L127.48 44.17 L123.94 42.77 Z" fill="#4a4a4e"/>
    <path d="M123.23 43.69 L125.46 46.77 L121.63 47.88 L121.87 44.09 Z" fill="#4a4a4e"/>
    <path d="M120.77 43.69 L118.54 46.77 L116.30 43.46 L119.98 42.52 Z" fill="#4a4a4e"/>
    <path d="M120.01 41.35 L116.40 40.18 L118.84 37.03 L120.88 40.24 Z" fill="#4a4a4e"/>
    <circle cx="122" cy="42" r="1.71" fill="#1a1a1c"/>
    <circle cx="122" cy="42" r="0.76" fill="#3a3a3c"/>
    <circle cx="122" cy="42" r="6.84" fill="none" stroke="#555558" stroke-width="0.6"/>
    <rect x="148" y="28" width="4.5" height="4" rx="0.8" fill="#d8d8d8" opacity="0.85"/>
    <rect x="8" y="30" width="3.5" height="3.5" rx="0.6" fill="#888890" opacity="0.7"/>
  </g>
</svg>
