<?xml version="1.0" encoding="UTF-8"?>
<svg xmlns="http://www.w3.org/2000/svg" viewBox="0 0 160 56" width="320" height="112">
  <!-- Phase 26 painted side-view — Viper-like long-hood sports; no logos/badges; facing right -->

  <defs>
    <linearGradient id="paint" x1="0" y1="0" x2="0" y2="1">
      <stop offset="0%" stop-color="#ffffff"/>
      <stop offset="28%" stop-color="#f2f2f2"/>
      <stop offset="55%" stop-color="#c8c8c8"/>
      <stop offset="82%" stop-color="#8a8a8a"/>
      <stop offset="100%" stop-color="#5a5a5a"/>
    </linearGradient>
    <linearGradient id="paintHi" x1="0" y1="0" x2="0" y2="1">
      <stop offset="0%" stop-color="#ffffff" stop-opacity="0.95"/>
      <stop offset="45%" stop-color="#ffffff" stop-opacity="0.35"/>
      <stop offset="100%" stop-color="#ffffff" stop-opacity="0"/>
    </linearGradient>
    <linearGradient id="glass" x1="0" y1="0" x2="0" y2="1">
      <stop offset="0%" stop-color="#1a222c"/>
      <stop offset="50%" stop-color="#0c1016"/>
      <stop offset="100%" stop-color="#06080c"/>
    </linearGradient>
    <linearGradient id="rocker" x1="0" y1="0" x2="0" y2="1">
      <stop offset="0%" stop-color="#000000" stop-opacity="0"/>
      <stop offset="100%" stop-color="#000000" stop-opacity="0.45"/>
    </linearGradient>
    <radialGradient id="rimShine" cx="35%" cy="30%" r="65%">
      <stop offset="0%" stop-color="#6a6a6a"/>
      <stop offset="55%" stop-color="#2a2a2a"/>
      <stop offset="100%" stop-color="#0a0a0a"/>
    </radialGradient>
  </defs>

  <g id="vehicle">
    <!-- body -->
    <path fill="url(#paint)" d="M4 40 L10 30 L20 20 L40 10 L68 5 L96 6 L122 14 L146 26 L152 36 L146 40 L136 42 L16 42 Z"/>
    <path fill="url(#rocker)" d="M16 38 L136 38 L136 42 L16 42 Z"/>
    <!-- shoulder / hood highlight -->
    <path fill="url(#paintHi)" d="M12 30 L24 18 L46 8 L74 5 L102 8 L126 16 L146 28 L142 30 L118 18 L84 8 L56 10 L30 20 Z"/>
    <!-- glass -->
    <path fill="url(#glass)" d="M64 8 L88 7 L108 14 L112 24 L90 26 L66 18 Z"/>
    <!-- wheels -->
    <circle cx="44" cy="42" r="9.0" fill="#0a0a0c"/>
    <circle cx="44" cy="42" r="8.280000000000001" fill="none" stroke="#1c1c20" stroke-width="1.2"/>
    <circle cx="44" cy="42" r="6.4799999999999995" fill="url(#rimShine)"/>
    <path d="M44.00 40.02 L44.00 36.42 L47.56 37.70 L45.26 40.47 Z" fill="#4a4a4e"/>
    <path d="M45.88 41.39 L49.31 40.28 L49.19 44.05 L45.84 42.73 Z" fill="#4a4a4e"/>
    <path d="M45.16 43.60 L47.28 46.51 L43.65 47.57 L43.88 43.98 Z" fill="#4a4a4e"/>
    <path d="M42.84 43.60 L40.72 46.51 L38.60 43.39 L42.08 42.49 Z" fill="#4a4a4e"/>
    <path d="M42.12 41.39 L38.69 40.28 L41.01 37.29 L42.94 40.33 Z" fill="#4a4a4e"/>
    <circle cx="44" cy="42" r="1.6199999999999999" fill="#1a1a1c"/>
    <circle cx="44" cy="42" r="0.72" fill="#3a3a3c"/>
    <circle cx="44" cy="42" r="6.4799999999999995" fill="none" stroke="#555558" stroke-width="0.6"/>
    <circle cx="128" cy="42" r="9.0" fill="#0a0a0c"/>
    <circle cx="128" cy="42" r="8.280000000000001" fill="none" stroke="#1c1c20" stroke-width="1.2"/>
    <circle cx="128" cy="42" r="6.4799999999999995" fill="url(#rimShine)"/>
    <path d="M128.00 40.02 L128.00 36.42 L131.56 37.70 L129.26 40.47 Z" fill="#4a4a4e"/>
    <path d="M129.88 41.39 L133.31 40.28 L133.19 44.05 L129.84 42.73 Z" fill="#4a4a4e"/>
    <path d="M129.16 43.60 L131.28 46.51 L127.65 47.57 L127.88 43.98 Z" fill="#4a4a4e"/>
    <path d="M126.84 43.60 L124.72 46.51 L122.60 43.39 L126.08 42.49 Z" fill="#4a4a4e"/>
    <path d="M126.12 41.39 L122.69 40.28 L125.01 37.29 L126.94 40.33 Z" fill="#4a4a4e"/>
    <circle cx="128" cy="42" r="1.6199999999999999" fill="#1a1a1c"/>
    <circle cx="128" cy="42" r="0.72" fill="#3a3a3c"/>
    <circle cx="128" cy="42" r="6.4799999999999995" fill="none" stroke="#555558" stroke-width="0.6"/>
    <rect x="148" y="28" width="4.5" height="4" rx="0.8" fill="#d8d8d8" opacity="0.85"/>
    <rect x="8" y="30" width="3.5" height="3.5" rx="0.6" fill="#888890" opacity="0.7"/>
  </g>
</svg>
